<?xml version="1.0" encoding="iso-8859-1"?>
<!-- Generator: Adobe Illustrator 19.0.0, SVG Export Plug-In . SVG Version: 6.00 Build 0)  -->
<svg version="1.1" id="Layer_1" xmlns="http://www.w3.org/2000/svg" xmlns:xlink="http://www.w3.org/1999/xlink" x="0px" y="0px"
	 viewBox="0 0 492.5 492.5" style="enable-background:new 0 0 492.5 492.5;" xml:space="preserve">
<g>
	<g>
		<path style="fill:#3C92CA;" d="M97.7,234.7c-5.5,0-9.9,4.4-9.9,9.9v36.1c0,43.5,35.4,78.8,78.8,78.8h112.7l-13.6,13.7
			c-3.9,3.9-3.9,10.1,0,14c1.9,1.9,4.5,2.9,7,2.9s5.1-1,7-2.9l30.5-30.5c3.9-3.9,3.9-10.1,0-14l-30.5-30.5c-3.9-3.9-10.1-3.9-14,0
			s-3.9,10.1,0,14l13.6,13.6H166.6c-32.6,0-59-26.5-59-59v-36.1C107.6,239.2,103.1,234.7,97.7,234.7z"/>
		<path style="fill:#3C92CA;" d="M212.3,148.6c1.9,1.9,4.5,2.9,7,2.9s5.1-1,7-2.9c3.9-3.9,3.9-10.1,0-14L212.7,121H326
			c32.6,0,59,26.5,59,59v36.1c0,5.5,4.4,9.9,9.9,9.9s9.9-4.4,9.9-9.9V180c0-43.5-35.4-78.8-78.8-78.8H212.7l13.6-13.6
			c3.9-3.9,3.9-10.1,0-14s-10.1-3.9-14,0l-30.5,30.5c-3.9,3.9-3.9,10.1,0,14L212.3,148.6z"/>
		<path style="fill:#2C2F33;" d="M307.3,410.7c-6.3,5.2-10,12.9-10,21.2v24.7c0,5.5,4.4,9.9,9.9,9.9s9.9-4.4,9.9-9.9v-24.7
			c0-2.3,1-4.4,2.7-5.9c21.6-17.7,44.9-29.5,49.4-31.7c3.9-1.9,6.5-6,6.5-10.3v-34.8c0-3.3-1.7-6.4-4.4-8.2
			c-1.8-1.2-2.9-3.2-2.9-5.3v-36.1c0-12.5,10.1-22.6,22.6-22.6h7.8c12.5,0,22.6,10.1,22.6,22.6v36.1c0,2.1-1.1,4.1-2.9,5.3
			c-2.8,1.8-4.4,4.9-4.4,8.2V384c0,4.4,2.5,8.4,6.5,10.3c4.5,2.2,27.9,14,49.4,31.7c1.7,1.4,2.7,3.6,2.7,5.9v24.7
			c0,5.5,4.4,9.9,9.9,9.9s9.9-4.4,9.9-9.9v-24.7c0-8.2-3.6-16-10-21.2c-18.9-15.6-39.2-26.9-48.6-31.8v-25.2
			c4.6-4.8,7.3-11.3,7.3-18.1v-36.1c0-23.4-19-42.4-42.4-42.4H391c-23.4,0-42.4,19-42.4,42.4v36.1c0,6.8,2.6,13.3,7.3,18.1v25.2
			C346.5,383.8,326.2,395.1,307.3,410.7z"/>
		<path style="fill:#2C2F33;" d="M143.9,104.4v-36c0-23.4-19-42.4-42.4-42.4h-7.8c-23.4,0-42.4,19-42.4,42.4v36.1
			c0,6.8,2.6,13.3,7.3,18.1v25.2c-9.5,4.9-29.7,16.3-48.6,31.8c-6.3,5.2-10,12.9-10,21.2v24.7c0,5.5,4.4,9.9,9.9,9.9
			s9.9-4.4,9.9-9.9v-24.7c0-2.3,1-4.4,2.7-5.9c21.6-17.7,44.9-29.5,49.4-31.7c3.9-1.9,6.5-6,6.5-10.3v-34.8c0-3.3-1.7-6.4-4.4-8.2
			c-1.8-1.2-2.9-3.2-2.9-5.3V68.4c0-12.5,10.1-22.6,22.6-22.6h7.8c12.5,0,22.6,10.1,22.6,22.6v36.1c0,2.1-1.1,4.1-2.9,5.3
			c-2.8,1.8-4.4,4.9-4.4,8.2v34.8c0,4.4,2.5,8.4,6.5,10.3c4.5,2.2,27.9,14,49.4,31.7c1.7,1.4,2.7,3.6,2.7,5.9v24.7
			c0,5.5,4.4,9.9,9.9,9.9s9.9-4.4,9.9-9.9v-24.7c0-8.2-3.6-15.9-10-21.2c-18.9-15.6-39.2-26.9-48.6-31.8v-25.2
			C141.3,117.7,143.9,111.3,143.9,104.4z"/>
	</g>
</g>
<g>
</g>
<g>
</g>
<g>
</g>
<g>
</g>
<g>
</g>
<g>
</g>
<g>
</g>
<g>
</g>
<g>
</g>
<g>
</g>
<g>
</g>
<g>
</g>
<g>
</g>
<g>
</g>
<g>
</g>
</svg>
